<?xml version="1.0" encoding="UTF-8" standalone="no"?>
<!-- Created with Inkscape (http://www.inkscape.org/) -->

<svg
   width="210mm"
   height="297mm"
   viewBox="0 0 210 297"
   version="1.1"
   id="svg1"
   xml:space="preserve"
   inkscape:version="1.3 (0e150ed6c4, 2023-07-21)"
   sodipodi:docname="front schrod.svg"
   xmlns:inkscape="http://www.inkscape.org/namespaces/inkscape"
   xmlns:sodipodi="http://sodipodi.sourceforge.net/DTD/sodipodi-0.dtd"
   xmlns="http://www.w3.org/2000/svg"
   xmlns:svg="http://www.w3.org/2000/svg"><sodipodi:namedview
     id="namedview1"
     pagecolor="#ffffff"
     bordercolor="#000000"
     borderopacity="0.25"
     inkscape:showpageshadow="2"
     inkscape:pageopacity="0.0"
     inkscape:pagecheckerboard="0"
     inkscape:deskcolor="#d1d1d1"
     inkscape:document-units="mm"
     inkscape:zoom="0.75894959"
     inkscape:cx="210.15889"
     inkscape:cy="571.84299"
     inkscape:window-width="1920"
     inkscape:window-height="1147"
     inkscape:window-x="0"
     inkscape:window-y="53"
     inkscape:window-maximized="0"
     inkscape:current-layer="layer1" /><defs
     id="defs1" /><g
     inkscape:label="Layer 1"
     inkscape:groupmode="layer"
     id="layer1"><text
       xml:space="preserve"
       style="font-size:106.273px;font-family:Blackletter;-inkscape-font-specification:'Blackletter, Normal';text-align:center;text-anchor:middle;fill:#000000;stroke:#ff0000;stroke-width:1.4644;stroke-linecap:round;stroke-linejoin:bevel;stroke-dasharray:none"
       x="219.52655"
       y="41.459526"
       id="text1"
       transform="scale(0.47801279,2.0919942)"><tspan
         sodipodi:role="line"
         id="tspan1"
         style="font-style:normal;font-variant:normal;font-weight:normal;font-stretch:normal;font-size:53.1367px;font-family:'Noto Serif Display';-inkscape-font-specification:'Noto Serif Display, Normal';font-variant-ligatures:normal;font-variant-caps:normal;font-variant-numeric:normal;font-variant-east-asian:normal;stroke-width:1.4644;stroke-dasharray:none"
         x="219.52655"
         y="41.459526">i survived</tspan></text><text
       xml:space="preserve"
       style="font-style:normal;font-variant:normal;font-weight:normal;font-stretch:normal;font-size:32.0555px;font-family:'Noto Serif Display';-inkscape-font-specification:'Noto Serif Display, Normal';font-variant-ligatures:normal;font-variant-caps:normal;font-variant-numeric:normal;font-variant-east-asian:normal;text-align:center;text-anchor:middle;fill:#000000;stroke:#ff0000;stroke-width:0.88342;stroke-linecap:round;stroke-linejoin:bevel;stroke-dasharray:none"
       x="83.455826"
       y="187.83118"
       id="text2"
       transform="scale(1.2620287,0.792375)"><tspan
         sodipodi:role="line"
         id="tspan2"
         style="stroke-width:0.88342"
         x="83.455826"
         y="187.83118">quantum</tspan><tspan
         sodipodi:role="line"
         style="stroke-width:0.88342"
         x="83.455826"
         y="227.90056"
         id="tspan3">mechaincs</tspan></text><text
       xml:space="preserve"
       style="font-style:normal;font-variant:normal;font-weight:normal;font-stretch:normal;font-size:16.2571px;font-family:'Noto Serif Display';-inkscape-font-specification:'Noto Serif Display, Normal';font-variant-ligatures:normal;font-variant-caps:normal;font-variant-numeric:normal;font-variant-east-asian:normal;text-align:center;text-anchor:middle;fill:#000000;stroke:#ff0000;stroke-width:0.448031;stroke-linecap:round;stroke-linejoin:bevel;stroke-dasharray:none"
       x="82.456551"
       y="330.64484"
       id="text4"
       transform="scale(1.2773013,0.78290062)"><tspan
         sodipodi:role="line"
         id="tspan4"
         style="stroke-width:0.448031"
         x="82.456551"
         y="330.64484">with doctor</tspan><tspan
         sodipodi:role="line"
         style="stroke-width:0.448031"
         x="82.456551"
         y="350.96625"
         id="tspan5">phillip cervantes</tspan></text><path
       style="fill:#000000;stroke-width:0.821912"
       d="m 22.014891,227.18084 c -0.217432,-0.21744 -0.172376,-1.59608 0.08211,-2.5124 0.123563,-0.4449 0.550472,-1.15438 0.948688,-1.57661 0.601648,-0.63793 0.875907,-0.76769 1.622574,-0.76769 0.617426,0 0.898546,-0.0936 0.898546,-0.29901 0,-0.16447 0.0609,-0.60355 0.135348,-0.97576 0.1147,-0.57349 0.05664,-0.70824 -0.380563,-0.88325 l -0.51591,-0.20653 0.503591,-0.0138 c 0.276976,-0.007 0.692876,-0.11509 0.924223,-0.23889 0.571417,-0.30583 0.557783,-0.10319 -0.246648,3.66556 -0.367005,1.7194 -0.620032,3.17344 -0.562286,3.23119 0.05775,0.0578 0.333559,-0.005 0.612915,-0.14159 0.40298,-0.19563 0.373132,-0.13142 -0.144473,0.31082 -0.358816,0.30657 -0.799182,0.52612 -0.97859,0.48788 -0.347291,-0.0741 -0.348282,-0.0829 -0.136384,-1.21639 l 0.137917,-0.73778 -0.940188,1.00961 c -0.857519,0.92082 -1.584229,1.24126 -1.96087,0.86462 z m 1.76658,-1.04606 c 0.712795,-0.59978 1.665477,-2.59023 1.476036,-3.08391 -0.08428,-0.21963 -0.374924,-0.29731 -0.937826,-0.25068 -0.939312,0.0778 -1.231232,0.51242 -1.58016,2.3523 -0.313556,1.65338 -0.05041,1.90146 1.04195,0.98229 z m 4.185084,0.70174 c 0.0042,-0.26911 0.147553,-1.12538 0.318558,-1.90281 0.399751,-1.81738 0.40713,-1.73828 -0.163099,-1.74842 -0.461208,-0.008 -0.454968,-0.0273 0.108732,-0.33315 0.464217,-0.25184 0.598027,-0.48345 0.598027,-1.03511 0,-0.39088 0.117431,-0.82812 0.260958,-0.97165 0.365256,-0.36526 0.899378,-0.32997 0.753649,0.0498 -0.06559,0.17091 -0.184806,0.6602 -0.264932,1.08731 -0.136833,0.72939 -0.111181,0.77658 0.422178,0.77658 0.312324,0 0.567863,0.0979 0.567863,0.21745 0,0.11961 -0.280068,0.21747 -0.622373,0.21747 -0.582517,0 -0.638219,0.0789 -0.869857,1.23233 -0.268697,1.33793 -0.319052,2.2471 -0.124457,2.2471 0.06767,0 0.336778,-0.10376 0.598027,-0.23058 0.376659,-0.18285 0.348677,-0.11533 -0.135155,0.32619 -0.776443,0.70853 -1.458623,0.74032 -1.448119,0.0675 z m 47.182119,0.3539 c 0,-0.0745 0.600597,-0.77742 1.33466,-1.56213 1.596924,-1.70712 2.249511,-3.00035 1.93348,-3.83157 -0.435596,-1.14571 -2.2559,-1.31165 -2.527278,-0.2304 -0.145477,0.57963 -0.523398,0.74448 -0.523398,0.22831 0,-1.31573 1.311139,-2.10955 2.71763,-1.64537 0.916972,0.30263 1.414193,0.95262 1.414193,1.84867 0,0.79432 -0.334608,1.3196 -1.939346,3.04451 l -1.213888,1.30479 1.794082,0.0632 c 1.615274,0.0569 1.79408,0.10564 1.79408,0.4893 0,0.39738 -0.161432,0.42614 -2.392107,0.42614 -1.315659,0 -2.392108,-0.0609 -2.392108,-0.13539 z m 6.106959,-1.44122 c 0.404371,-1.5568 0.53327,-2.77267 0.293942,-2.77267 -0.06767,0 -0.336778,0.10302 -0.598026,0.22896 -0.329284,0.15872 -0.274866,0.059 0.177394,-0.32512 0.358816,-0.30474 0.832248,-0.55455 1.05207,-0.55516 0.347291,-8.1e-4 0.381324,0.12007 0.259656,0.92315 l -0.140022,0.92423 0.399789,-0.49741 c 0.535593,-0.66636 1.595386,-1.34785 2.098828,-1.34961 0.356442,-0.002 0.390223,0.11198 0.265713,0.89061 l -0.142642,0.89203 0.924508,-0.79134 c 0.898702,-0.76925 1.805817,-1.17417 2.060317,-0.91967 0.06892,0.0689 -0.09444,1.01463 -0.36302,2.10158 -0.268575,1.08695 -0.435758,2.02884 -0.371517,2.09308 0.06424,0.0643 0.345367,0.005 0.624723,-0.12978 0.401169,-0.19476 0.370804,-0.13013 -0.144473,0.30751 -0.742146,0.63029 -1.413518,0.72616 -1.413518,0.20182 0,-0.19492 0.211276,-1.12532 0.469503,-2.06758 0.258227,-0.94225 0.404868,-1.77781 0.325869,-1.85681 -0.250205,-0.25021 -1.264847,0.43835 -1.794472,1.21777 -0.280683,0.41306 -0.626647,1.27077 -0.768811,1.90602 -0.189058,0.8448 -0.358502,1.15501 -0.630909,1.15501 -0.349259,0 -0.347569,-0.10486 0.02718,-1.68535 0.485779,-2.04877 0.511363,-2.66394 0.110794,-2.66394 -0.770744,0 -2.305903,2.70466 -2.305903,4.06256 0,0.1577 -0.18596,0.28673 -0.413244,0.28673 -0.405674,0 -0.405741,-0.029 -0.0037,-1.57662 z M 52.31492,222.82637 c 0,-0.12733 0.153941,-0.35928 0.342091,-0.51543 0.994076,-0.82501 1.754067,-3.79211 1.515709,-5.91752 -0.179286,-1.59866 -0.627146,-2.86509 -1.346967,-3.80881 -0.514921,-0.6751 -0.52468,-0.72148 -0.104508,-0.4966 0.735671,0.39371 1.718191,2.3432 1.988436,3.94538 0.408551,2.42218 -0.297202,5.01493 -1.741814,6.39895 -0.359122,0.34405 -0.652947,0.52137 -0.652947,0.39403 z m 80.67926,0 c 0,-0.12733 0.15393,-0.35928 0.34209,-0.51543 0.99408,-0.82501 1.75407,-3.79211 1.51571,-5.91752 -0.17929,-1.59866 -0.62715,-2.86509 -1.34696,-3.80881 -0.51494,-0.6751 -0.52469,-0.72148 -0.10452,-0.4966 0.73568,0.39371 1.71819,2.3432 1.98844,3.94538 0.40855,2.42218 -0.29721,5.01493 -1.74182,6.39895 -0.35912,0.34405 -0.65294,0.52137 -0.65294,0.39403 z m 34.79429,0 c 0,-0.12733 0.15395,-0.35928 0.34209,-0.51543 0.99407,-0.82501 1.75406,-3.79211 1.51571,-5.91752 -0.17928,-1.59866 -0.62714,-2.86509 -1.34697,-3.80881 -0.51492,-0.6751 -0.52468,-0.72148 -0.1045,-0.4966 0.73567,0.39371 1.71819,2.3432 1.98843,3.94538 0.40855,2.42218 -0.2972,5.01493 -1.74182,6.39895 -0.35911,0.34405 -0.65294,0.52137 -0.65294,0.39403 z m 30.01008,0 c 0,-0.12733 0.15394,-0.35928 0.34209,-0.51543 0.99407,-0.82501 1.75406,-3.79211 1.51571,-5.91752 -0.17929,-1.59866 -0.62715,-2.86509 -1.34697,-3.80881 -0.51492,-0.6751 -0.52469,-0.72148 -0.1045,-0.4966 0.73566,0.39371 1.71818,2.3432 1.98843,3.94538 0.40855,2.42218 -0.2972,5.01493 -1.74182,6.39895 -0.35912,0.34405 -0.65294,0.52137 -0.65294,0.39403 z M 37.253495,222.16104 c -0.314979,-0.32892 -0.793916,-1.08733 -1.064307,-1.68535 -0.635739,-1.40607 -0.697242,-4.24449 -0.127374,-5.87843 0.39454,-1.13123 1.533423,-2.71141 1.9542,-2.71141 0.131747,0 0.03154,0.2214 -0.222674,0.492 -1.449496,1.54292 -1.976722,5.05238 -1.161984,7.73473 0.256781,0.8454 0.562901,1.59644 0.680263,1.66897 0.218292,0.13491 0.727087,0.97752 0.590261,0.97752 -0.04163,0 -0.333407,-0.26912 -0.648385,-0.59803 z m 80.679255,0 c -0.31497,-0.32892 -0.79391,-1.08733 -1.06431,-1.68535 -0.63573,-1.40607 -0.69724,-4.24449 -0.12736,-5.87843 0.39453,-1.13123 1.53341,-2.71141 1.95419,-2.71141 0.13174,0 0.0315,0.2214 -0.22267,0.492 -1.4495,1.54292 -1.97672,5.05238 -1.16199,7.73473 0.25678,0.8454 0.56291,1.59644 0.68027,1.66897 0.21829,0.13491 0.72709,0.97752 0.59026,0.97752 -0.0417,0 -0.33341,-0.26912 -0.64839,-0.59803 z m 43.05794,0 c -0.31498,-0.32892 -0.79391,-1.08733 -1.06431,-1.68535 -0.63573,-1.40607 -0.69724,-4.24449 -0.12737,-5.87843 0.39453,-1.13123 1.53342,-2.71141 1.9542,-2.71141 0.13174,0 0.0315,0.2214 -0.22268,0.492 -1.4495,1.54292 -1.97672,5.05238 -1.16199,7.73473 0.25679,0.8454 0.56291,1.59644 0.68027,1.66897 0.21829,0.13491 0.72709,0.97752 0.59026,0.97752 -0.0417,0 -0.3334,-0.26912 -0.64838,-0.59803 z m 21.74643,0 c -0.31498,-0.32892 -0.79391,-1.08733 -1.0643,-1.68535 -0.63575,-1.40607 -0.69725,-4.24449 -0.12738,-5.87843 0.39454,-1.13123 1.53342,-2.71141 1.9542,-2.71141 0.13175,0 0.0316,0.2214 -0.22268,0.492 -1.44949,1.54292 -1.97671,5.05238 -1.16198,7.73473 0.25678,0.8454 0.5629,1.59644 0.68027,1.66897 0.21829,0.13491 0.72708,0.97752 0.59025,0.97752 -0.0416,0 -0.3334,-0.26912 -0.64838,-0.59803 z M 44.049461,220.76466 c 0.234955,-0.51775 0.429341,-1.10121 0.431968,-1.29657 0.0028,-0.20424 0.235848,-0.39939 0.548436,-0.45914 0.735425,-0.14059 0.696526,0.21315 -0.163097,1.48319 -0.926443,1.36876 -1.384027,1.52133 -0.817307,0.27252 z m 80.461789,0 c 0.23495,-0.51775 0.42935,-1.10121 0.43197,-1.29657 0.003,-0.20424 0.23585,-0.39939 0.54844,-0.45914 0.73542,-0.14059 0.69653,0.21315 -0.1631,1.48319 -0.92644,1.36876 -1.38402,1.52133 -0.81731,0.27252 z m 65.02184,0 c 0.23495,-0.51775 0.42935,-1.10121 0.43197,-1.29657 0.003,-0.20424 0.23584,-0.39939 0.54843,-0.45914 0.73542,-0.14059 0.69653,0.21315 -0.1631,1.48319 -0.92645,1.36876 -1.38402,1.52133 -0.8173,0.27252 z m -46.53556,-1.48503 v -1.73971 h -1.73971 c -1.01483,0 -1.73971,-0.0906 -1.73971,-0.21746 0,-0.12686 0.72488,-0.21747 1.73971,-0.21747 h 1.73971 v -1.75254 c 0,-1.113 0.0794,-1.70351 0.21748,-1.61815 0.1196,0.0739 0.21745,0.86256 0.21745,1.75255 v 1.61814 h 1.61815 c 0.88999,0 1.67863,0.0979 1.75255,0.21747 0.0853,0.1381 -0.50515,0.21746 -1.61815,0.21746 h -1.75255 v 1.73971 c 0,1.01483 -0.0906,1.73972 -0.21745,1.73972 -0.12686,0 -0.21748,-0.72489 -0.21748,-1.73972 z m -45.834084,1.03296 c -0.32768,-0.40515 -3.74777,-7.299 -3.74777,-7.55433 0,-0.14046 1.45483,-0.22002 4.02309,-0.22002 2.2127,0 4.023084,0.05 4.023084,0.11102 0,0.1776 -3.908134,7.93516 -3.997604,7.93516 -0.0446,0 -0.17988,-0.12233 -0.3008,-0.27183 z m 2.01348,-3.85688 c 0.77828,-1.55317 1.415064,-2.87427 1.415064,-2.93578 0,-0.0615 -1.321084,-0.11184 -2.935754,-0.11184 -1.61468,0 -2.93578,0.0504 -2.93578,0.11184 0,0.2086 2.82946,5.7597 2.93578,5.7597 0.0581,0 0.7424,-1.27077 1.52069,-2.82392 z m -89.267548,3.20011 c 0,-0.27151 0.199525,-1.21368 0.44339,-2.09369 0.243864,-0.88001 0.386202,-1.65721 0.316306,-1.72711 -0.0699,-0.0699 -0.318351,-0.007 -0.552122,0.13835 -0.233771,0.146 -0.425039,0.18786 -0.425039,0.093 0,-0.24026 1.18902,-0.91859 1.61017,-0.91859 0.190855,0 0.345048,0.0245 0.34265,0.0543 -0.0024,0.0299 -0.242162,0.98076 -0.53281,2.113 -0.290649,1.13227 -0.484819,2.10228 -0.431489,2.15561 0.05333,0.0534 0.342024,-0.0147 0.641543,-0.15117 0.77223,-0.35185 0.674607,-0.15581 -0.187848,0.37721 -0.939593,0.5807 -1.224751,0.57116 -1.224751,-0.041 z m 2.827035,0.29337 c 0,-0.11015 0.186841,-1.01535 0.4152,-2.01154 0.696225,-3.03719 0.738089,-3.44223 0.355779,-3.44223 -0.184827,0 -0.336049,-0.14679 -0.336049,-0.3262 0,-0.18122 0.193301,-0.32619 0.434928,-0.32619 0.593003,0 0.554042,-0.61853 -0.05436,-0.86308 l -0.489295,-0.19668 0.503591,-0.0138 c 0.276976,-0.007 0.707509,-0.12291 0.956743,-0.25629 0.428665,-0.22942 0.446258,-0.20005 0.325572,0.54366 l -0.127579,0.78618 h 0.856185 c 0.616077,0 0.856185,0.0915 0.856185,0.32619 0,0.24022 -0.25062,0.3262 -0.950796,0.3262 -0.92947,0 -0.953855,0.0183 -1.087205,0.81549 -0.07503,0.44852 -0.201216,1.06014 -0.280423,1.35915 -0.124868,0.47139 0.006,0.40444 0.984484,-0.50362 0.787181,-0.73055 1.274668,-1.02496 1.611781,-0.97344 0.55987,0.0856 0.557575,-0.0285 0.04612,2.2931 -0.217446,0.98705 -0.338744,1.85124 -0.269552,1.92044 0.06919,0.0692 0.354369,0.0149 0.633724,-0.12078 0.401169,-0.19475 0.370805,-0.13012 -0.144473,0.3075 -0.826029,0.70154 -1.417966,0.72982 -1.400982,0.0669 0.0069,-0.26912 0.193314,-1.17431 0.414267,-2.01154 0.220951,-0.83724 0.323675,-1.60471 0.228275,-1.70551 -0.473125,-0.49982 -2.242436,1.44309 -2.505248,2.75105 -0.248412,1.23631 -0.348529,1.4553 -0.665325,1.4553 -0.171348,0 -0.311541,-0.0901 -0.311541,-0.2003 z m 26.973324,-0.0715 c 0.0043,-0.14952 0.149519,-0.859 0.322799,-1.57662 0.173279,-0.71764 0.316581,-1.5805 0.31845,-1.91747 0.0028,-0.51432 -0.06642,-0.59052 -0.431532,-0.47464 -0.648774,0.20592 -0.525154,-0.0509 0.206665,-0.42934 1.015133,-0.52495 1.171349,-0.4421 1.014613,0.53807 -0.0765,0.47843 -0.102319,0.86987 -0.05737,0.86987 0.04495,0 0.352992,-0.39144 0.684538,-0.86987 0.689792,-0.99536 1.41502,-1.19321 1.252227,-0.34162 -0.06522,0.34116 -0.208506,0.48698 -0.404588,0.41174 -0.543647,-0.20862 -1.535253,1.14152 -1.942,2.64417 -0.231872,0.85661 -0.500015,1.41754 -0.677629,1.41754 -0.161657,0 -0.290434,-0.12232 -0.286173,-0.27183 z m 8.915929,-0.21748 c 0.0042,-0.2691 0.147553,-1.12537 0.318557,-1.9028 0.399752,-1.81738 0.407132,-1.73828 -0.163098,-1.74842 -0.46121,-0.008 -0.454968,-0.0273 0.108733,-0.33315 0.464215,-0.25184 0.598026,-0.48345 0.598026,-1.03511 0,-0.39088 0.117431,-0.82812 0.260958,-0.97165 0.365256,-0.36526 0.899378,-0.32997 0.753649,0.0498 -0.06559,0.1709 -0.184806,0.6602 -0.264932,1.08731 -0.136833,0.72939 -0.111181,0.77658 0.422176,0.77658 0.312326,0 0.567864,0.0979 0.567864,0.21745 0,0.11961 -0.280067,0.21747 -0.622372,0.21747 -0.582518,0 -0.638219,0.0789 -0.869857,1.23233 -0.268698,1.33794 -0.319052,2.2471 -0.124458,2.2471 0.06767,0 0.336778,-0.10376 0.598028,-0.23058 0.376659,-0.18285 0.348677,-0.11533 -0.135155,0.32619 -0.776444,0.70853 -1.458623,0.74032 -1.448119,0.0675 z m 61.317304,0.20872 c 0.48543,-0.2448 0.55047,-0.42775 0.60731,-1.70835 l 0.0636,-1.43418 -0.9479,-0.23868 c -1.24018,-0.31229 -1.66484,-0.81927 -1.82599,-2.17992 -0.10623,-0.89688 -0.21209,-1.11714 -0.53695,-1.11714 -0.22255,0 -0.40464,-0.10349 -0.40464,-0.22998 0,-0.13605 0.37739,-0.20265 0.92423,-0.16309 l 0.92422,0.0669 0.11459,1.13977 c 0.11978,1.19144 0.45839,1.71301 1.19019,1.83327 0.36391,0.0599 0.44629,-0.0671 0.50443,-0.77766 0.10085,-1.23223 -0.10949,-1.86919 -0.6173,-1.86919 -0.23693,0 -0.43079,-0.0978 -0.43079,-0.21746 0,-0.12427 0.6524,-0.21747 1.52226,-0.21747 1.42444,0 2.12083,0.31967 1.03295,0.47417 -0.43344,0.0615 -0.49674,0.21222 -0.55452,1.31991 -0.0576,1.10528 -0.0174,1.25043 0.34686,1.25043 0.64929,0 1.21315,-0.80584 1.34084,-1.91625 0.11073,-0.96283 0.15654,-1.02331 0.824,-1.08767 0.78471,-0.0757 0.98969,0.32348 0.22268,0.43358 -0.38162,0.0548 -0.51694,0.26299 -0.63933,0.9836 -0.22072,1.29964 -0.54436,1.79633 -1.40471,2.15581 l -0.75339,0.31479 0.0641,1.45534 c 0.0575,1.303 0.12105,1.48404 0.6078,1.7295 0.48491,0.24454 0.36738,0.27417 -1.08732,0.27417 -1.4547,0 -1.57222,-0.0297 -1.08732,-0.27417 z m 10.22856,0.009 c 0.004,-0.14951 0.14952,-0.85898 0.3228,-1.57661 0.17327,-0.71764 0.31658,-1.5805 0.31845,-1.91748 0.003,-0.51432 -0.0664,-0.59051 -0.43153,-0.47463 -0.64878,0.20591 -0.52516,-0.0509 0.20666,-0.42935 1.01514,-0.52494 1.17135,-0.4421 1.01461,0.53808 -0.0765,0.47842 -0.10231,0.86986 -0.0574,0.86986 0.0449,0 0.35299,-0.39144 0.68454,-0.86986 0.68979,-0.99537 1.41502,-1.19322 1.25224,-0.34162 -0.0653,0.34116 -0.20852,0.48698 -0.4046,0.41173 -0.54364,-0.20861 -1.53525,1.14153 -1.942,2.64418 -0.23187,0.8566 -0.50001,1.41753 -0.67763,1.41753 -0.16166,0 -0.29043,-0.12232 -0.28617,-0.27183 z m 8.91593,-0.21746 c 0.004,-0.26911 0.14755,-1.12538 0.31856,-1.90281 0.39975,-1.81738 0.40713,-1.73828 -0.16309,-1.74843 -0.46122,-0.008 -0.45498,-0.0273 0.10872,-0.33314 0.46422,-0.25184 0.59803,-0.48345 0.59803,-1.03512 0,-0.39088 0.11743,-0.82812 0.26095,-0.97165 0.36526,-0.36525 0.89938,-0.32996 0.75366,0.0498 -0.0656,0.17091 -0.18481,0.66021 -0.26494,1.08731 -0.13683,0.7294 -0.11118,0.77658 0.42218,0.77658 0.31232,0 0.56786,0.0979 0.56786,0.21747 0,0.1196 -0.28006,0.21745 -0.62237,0.21745 -0.58252,0 -0.63822,0.0789 -0.86986,1.23233 -0.2687,1.33795 -0.31905,2.24711 -0.12446,2.24711 0.0677,0 0.33678,-0.10376 0.59803,-0.23059 0.37666,-0.18285 0.34868,-0.11532 -0.13516,0.3262 -0.77644,0.70853 -1.45861,0.74032 -1.44811,0.0675 z m 23.18471,-0.21747 c -0.0686,-0.38871 -0.29285,-1.9193 -0.4983,-3.40129 -0.31008,-2.23678 -0.44079,-2.71212 -0.76931,-2.79804 -0.84148,-0.22005 -0.33556,-0.4877 0.92185,-0.4877 0.82304,0 1.26717,0.0816 1.18322,0.21747 -0.0739,0.11961 -0.27541,0.21747 -0.44776,0.21747 -0.39367,0 -0.39107,0.5645 0.0155,3.37069 0.17329,1.19606 0.31763,2.27251 0.32077,2.39211 0.008,0.31085 3.26148,-5.16345 3.26325,-5.49097 8.1e-4,-0.14951 -0.13954,-0.27183 -0.31189,-0.27183 -0.17235,0 -0.37384,-0.0979 -0.44776,-0.21747 -0.0836,-0.13526 0.33452,-0.21747 1.10624,-0.21747 h 1.24064 l -0.52105,0.49117 c -0.28657,0.27014 -1.39031,1.93375 -2.45276,3.6969 -1.06243,1.76314 -2.0546,3.20572 -2.2048,3.20572 -0.15021,0 -0.32923,-0.31804 -0.39784,-0.70676 z m 10.9573,0.43493 c 0.004,-0.14951 0.14951,-0.85898 0.32279,-1.57661 0.17328,-0.71764 0.31659,-1.5805 0.31846,-1.91748 0.003,-0.51432 -0.0664,-0.59051 -0.43154,-0.47463 -0.64877,0.20591 -0.52516,-0.0509 0.20667,-0.42935 1.01514,-0.52494 1.17135,-0.4421 1.0146,0.53808 -0.0765,0.47842 -0.10231,0.86986 -0.0574,0.86986 0.0449,0 0.35299,-0.39144 0.68453,-0.86986 0.6898,-0.99537 1.41503,-1.19322 1.25224,-0.34162 -0.0653,0.34116 -0.20851,0.48698 -0.4046,0.41173 -0.54364,-0.20861 -1.53524,1.14153 -1.94199,2.64418 -0.23187,0.8566 -0.50002,1.41753 -0.67763,1.41753 -0.16166,0 -0.29044,-0.12232 -0.28617,-0.27183 z m 11.51786,-0.009 c 0.48544,-0.2448 0.55048,-0.42775 0.60732,-1.70835 l 0.0636,-1.43418 -0.9479,-0.23868 c -1.24018,-0.31229 -1.66484,-0.81927 -1.826,-2.17992 -0.10621,-0.89688 -0.21208,-1.11714 -0.53695,-1.11714 -0.22254,0 -0.40463,-0.10349 -0.40463,-0.22998 0,-0.13605 0.3774,-0.20265 0.92422,-0.16309 l 0.92423,0.0669 0.11459,1.13977 c 0.11978,1.19144 0.45839,1.71301 1.1902,1.83327 0.3639,0.0599 0.44627,-0.0671 0.50441,-0.77766 0.10087,-1.23223 -0.10949,-1.86919 -0.61729,-1.86919 -0.23693,0 -0.43078,-0.0978 -0.43078,-0.21746 0,-0.12427 0.65238,-0.21747 1.52225,-0.21747 1.42444,0 2.12082,0.31967 1.03296,0.47417 -0.43346,0.0615 -0.49675,0.21222 -0.55453,1.31991 -0.0576,1.10528 -0.0174,1.25043 0.34686,1.25043 0.64929,0 1.21315,-0.80584 1.34084,-1.91625 0.11072,-0.96283 0.15654,-1.02331 0.824,-1.08767 0.7847,-0.0757 0.98969,0.32348 0.22268,0.43358 -0.38162,0.0548 -0.51694,0.26299 -0.63934,0.9836 -0.22072,1.29964 -0.54435,1.79633 -1.4047,2.15581 l -0.7534,0.31479 0.0641,1.45534 c 0.0575,1.303 0.12106,1.48404 0.60781,1.7295 0.4849,0.24454 0.36737,0.27417 -1.08732,0.27417 -1.4547,0 -1.57223,-0.0297 -1.08732,-0.27417 z m 10.22856,0.009 c 0.004,-0.14951 0.14953,-0.85898 0.32281,-1.57661 0.17328,-0.71764 0.31658,-1.5805 0.31845,-1.91748 0.003,-0.51432 -0.0664,-0.59051 -0.43153,-0.47463 -0.64878,0.20591 -0.52516,-0.0509 0.20666,-0.42935 1.01513,-0.52494 1.17135,-0.4421 1.01461,0.53808 -0.0765,0.47842 -0.10231,0.86986 -0.0574,0.86986 0.0449,0 0.35298,-0.39144 0.68453,-0.86986 0.6898,-0.99537 1.41503,-1.19322 1.25223,-0.34162 -0.0653,0.34116 -0.20851,0.48698 -0.40459,0.41173 -0.54364,-0.20861 -1.53525,1.14153 -1.942,2.64418 -0.23188,0.8566 -0.50001,1.41753 -0.67763,1.41753 -0.16165,0 -0.29043,-0.12232 -0.28618,-0.27183 z m 9.1334,-0.21746 c 0.004,-0.26911 0.14755,-1.12538 0.31856,-1.90281 0.39975,-1.81738 0.40713,-1.73828 -0.16311,-1.74843 -0.4612,-0.008 -0.45496,-0.0273 0.10874,-0.33314 0.46421,-0.25184 0.59804,-0.48345 0.59804,-1.03512 0,-0.39088 0.11742,-0.82812 0.26095,-0.97165 0.36526,-0.36525 0.89938,-0.32996 0.75365,0.0498 -0.0656,0.17091 -0.18481,0.66021 -0.26493,1.08731 -0.13684,0.7294 -0.11118,0.77658 0.42217,0.77658 0.31233,0 0.56787,0.0979 0.56787,0.21747 0,0.1196 -0.28008,0.21745 -0.62238,0.21745 -0.58251,0 -0.63822,0.0789 -0.86985,1.23233 -0.2687,1.33795 -0.31905,2.24711 -0.12447,2.24711 0.0677,0 0.33678,-0.10376 0.59804,-0.23059 0.37666,-0.18285 0.34867,-0.11532 -0.13516,0.3262 -0.77645,0.70853 -1.45862,0.74032 -1.44812,0.0675 z M 59.926172,218.40978 c 0,-0.13616 1.336751,-0.21746 3.575327,-0.21746 2.148974,0 3.628946,0.0868 3.709727,0.21746 0.08759,0.14173 -1.157551,0.21746 -3.575327,0.21746 -2.328175,0 -3.709727,-0.081 -3.709727,-0.21746 z m -40.665829,-0.86986 c 0,-0.14045 2.464596,-0.21746 6.958859,-0.21746 4.494263,0 6.958858,0.077 6.958858,0.21746 0,0.14044 -2.464595,0.21747 -6.958858,0.21747 -4.494263,0 -6.958859,-0.077 -6.958859,-0.21747 z m 53.061295,0 c 0,-0.14165 3.298209,-0.21746 9.459699,-0.21746 6.161487,0 9.459699,0.0758 9.459699,0.21746 0,0.14165 -3.298212,0.21747 -9.459699,0.21747 -6.16149,0 -9.459699,-0.0758 -9.459699,-0.21747 z m -12.286735,-1.30478 c 0.08047,-0.13021 1.520231,-0.21747 3.588162,-0.21747 2.06793,0 3.50769,0.0873 3.588161,0.21747 0.0876,0.14174 -1.161829,0.21746 -3.588161,0.21746 -2.426331,0 -3.675762,-0.0757 -3.588162,-0.21746 z m 42.296807,-0.56754 c 0,-0.0729 0.49858,-0.67814 1.10795,-1.34488 1.2052,-1.31868 1.58379,-2.05286 1.3837,-2.68329 -0.30012,-0.94559 -1.69074,-1.02335 -2.05702,-0.11502 -0.17987,0.44606 -0.19031,0.44086 -0.20338,-0.10123 -0.0181,-0.75095 0.44139,-1.10307 1.43948,-1.10307 0.57609,0 0.92595,0.13993 1.20194,0.48075 0.73546,0.90827 0.46723,1.6668 -1.21038,3.42273 l -0.88299,0.92422 h 1.35006 c 1.05508,0 1.35007,0.0713 1.35007,0.3262 0,0.26277 -0.33828,0.3262 -1.73971,0.3262 -0.95685,0 -1.73972,-0.0597 -1.73972,-0.13261 z m -91.206479,-2.22747 c -0.06303,-0.10198 0.02247,-0.37109 0.189991,-0.59802 0.234981,-0.31831 0.364234,-0.35381 0.56557,-0.15539 0.143539,0.14146 0.202128,0.41058 0.130197,0.59803 -0.139857,0.36447 -0.696221,0.46207 -0.885758,0.15538 z m 8.715018,-0.61194 c -0.217434,-0.21743 -0.172377,-1.59607 0.0821,-2.51239 0.123563,-0.44491 0.550472,-1.15438 0.948688,-1.57661 0.601649,-0.63794 0.875907,-0.7677 1.622575,-0.7677 0.617426,0 0.898546,-0.0935 0.898546,-0.29901 0,-0.16446 0.0609,-0.60354 0.135348,-0.97576 0.114698,-0.57348 0.05664,-0.70824 -0.380563,-0.88325 l -0.515911,-0.20652 0.503592,-0.0138 c 0.276974,-0.007 0.692875,-0.11509 0.924224,-0.2389 0.571417,-0.30582 0.557782,-0.10318 -0.246649,3.66556 -0.367004,1.71941 -0.620033,3.17344 -0.562286,3.23119 0.05775,0.0578 0.333558,-0.005 0.612915,-0.14159 0.402981,-0.19563 0.373132,-0.13142 -0.144474,0.31082 -0.358816,0.30658 -0.799181,0.52612 -0.978589,0.48789 -0.347292,-0.0741 -0.348283,-0.0829 -0.136385,-1.2164 l 0.137918,-0.73778 -0.940188,1.0096 c -0.85752,0.92084 -1.584229,1.24127 -1.960869,0.86464 z m 1.766578,-1.04606 c 0.712797,-0.59977 1.665478,-2.59023 1.476037,-3.0839 -0.08428,-0.21963 -0.374925,-0.29732 -0.937827,-0.25068 -0.93931,0.0778 -1.231232,0.51241 -1.580158,2.3523 -0.313557,1.65337 -0.05041,1.90145 1.041948,0.98228 z m 6.352089,0.91046 c 0.485439,-0.2448 0.550479,-0.42775 0.607322,-1.70835 l 0.06365,-1.43418 -0.947901,-0.2387 c -1.240175,-0.31227 -1.664847,-0.81926 -1.825995,-2.17991 -0.106223,-0.89688 -0.212088,-1.11714 -0.536947,-1.11714 -0.222551,0 -0.404638,-0.10349 -0.404638,-0.22997 0,-0.13606 0.377393,-0.20266 0.924223,-0.1631 l 0.924223,0.0669 0.114589,1.13977 c 0.119784,1.19145 0.458391,1.71301 1.190197,1.83327 0.363912,0.0598 0.446277,-0.0671 0.504427,-0.77766 0.100855,-1.23224 -0.109499,-1.86918 -0.617302,-1.86918 -0.236932,0 -0.430785,-0.0979 -0.430785,-0.21747 0,-0.12426 0.652392,-0.21746 1.522249,-0.21746 1.424446,0 2.120826,0.31967 1.032956,0.47416 -0.433446,0.0615 -0.496738,0.21222 -0.554513,1.31991 -0.05765,1.10528 -0.01739,1.25044 0.346859,1.25044 0.649287,0 1.213147,-0.80584 1.340837,-1.91625 0.110718,-0.96283 0.156537,-1.02332 0.823996,-1.08768 0.78471,-0.0757 0.989699,0.32349 0.22268,0.43358 -0.381613,0.0548 -0.51694,0.263 -0.639325,0.98361 -0.220726,1.29964 -0.544363,1.79633 -1.404716,2.15581 l -0.753397,0.31479 0.06414,1.45534 c 0.05743,1.303 0.12105,1.48403 0.607803,1.72949 0.484902,0.24455 0.367382,0.27417 -1.087322,0.27417 -1.454702,0 -1.572222,-0.0296 -1.08732,-0.27417 z m 53.496224,0.0803 c 0,-0.11016 0.186839,-1.01536 0.415199,-2.01154 0.696225,-3.0372 0.738089,-3.44223 0.355779,-3.44223 -0.184827,0 -0.33605,-0.1468 -0.33605,-0.3262 0,-0.18122 0.193302,-0.3262 0.434929,-0.3262 0.593003,0 0.554042,-0.61853 -0.05437,-0.86308 l -0.489295,-0.19668 0.503591,-0.0138 c 0.276976,-0.007 0.70751,-0.12291 0.956743,-0.2563 0.428665,-0.22942 0.446259,-0.20004 0.325572,0.54366 l -0.127579,0.78619 h 0.856186 c 0.616076,0 0.856184,0.0915 0.856184,0.32618 0,0.24023 -0.25062,0.32621 -0.950796,0.32621 -0.92947,0 -0.953854,0.0182 -1.087205,0.81549 -0.07503,0.44852 -0.201215,1.06014 -0.280423,1.35915 -0.124868,0.47139 0.006,0.40444 0.984485,-0.50363 0.787181,-0.73054 1.274667,-1.02496 1.611781,-0.97343 0.559869,0.0856 0.557574,-0.0285 0.04612,2.29309 -0.217447,0.98706 -0.338745,1.85125 -0.269552,1.92044 0.06919,0.0692 0.354367,0.0149 0.633724,-0.12078 0.401169,-0.19475 0.370804,-0.13012 -0.144474,0.3075 -0.826029,0.70154 -1.417965,0.72983 -1.400982,0.0669 0.0069,-0.26911 0.193314,-1.1743 0.414267,-2.01154 0.220952,-0.83724 0.323675,-1.6047 0.228275,-1.70549 -0.473125,-0.49983 -2.242435,1.44307 -2.505247,2.75104 -0.248412,1.23629 -0.34853,1.45529 -0.665325,1.45529 -0.171348,0 -0.311542,-0.0901 -0.311542,-0.20029 z m -8.154913,-2.62674 c 0.0799,-0.12928 1.45202,-0.21746 3.383531,-0.21746 2.021112,0 3.249131,0.0822 3.249131,0.21746 0,0.13565 -1.27282,0.21747 -3.383531,0.21747 -2.200311,0 -3.336531,-0.076 -3.249131,-0.21747 z m 14.548337,-2.8814 c 1.290864,-1.45455 1.751246,-2.35065 1.572852,-3.06143 -0.244482,-0.97409 -1.593146,-1.03136 -2.048925,-0.087 -0.218577,0.45287 -0.234587,0.45611 -0.245231,0.0496 -0.02433,-0.92923 0.937465,-1.48333 2.030568,-1.16983 0.780795,0.22393 0.988231,0.52474 0.992555,1.43936 0.0026,0.54696 -0.25061,0.98451 -1.132539,1.95718 l -1.135869,1.25272 1.353332,0.0647 c 1.008509,0.0482 1.353339,0.14522 1.353339,0.38057 0,0.25172 -0.3809,0.31582 -1.876647,0.31582 h -1.876641 z"
       id="path5" /></g></svg>
